M48
; DRILL file {KiCad 9.0.6} date 2026-06-17T22:07:34-0500
; FORMAT={-:-/ absolute / inch / decimal}
; #@! TF.CreationDate,2026-06-17T22:07:34-05:00
; #@! TF.GenerationSoftware,Kicad,Pcbnew,9.0.6
; #@! TF.FileFunction,Plated,1,4,PTH
FMAT,2
INCH
; #@! TA.AperFunction,Plated,PTH,ViaDrill
T1C0.0118
; #@! TA.AperFunction,Plated,PTH,ComponentDrill
T2C0.0236
; #@! TA.AperFunction,Plated,PTH,ComponentDrill
T3C0.0591
; #@! TA.AperFunction,Plated,PTH,ComponentDrill
T4C0.1260
%
G90
G05
T1
X3.9803Y-2.5758
X4.0689Y-2.3228
X4.126Y-4.2441
X4.2283Y-4.2441
X4.2559Y-2.3445
X4.2638Y-3.6063
X4.2756Y-2.2559
X4.311Y-2.2913
X4.3228Y-4.2441
X4.3307Y-2.1654
X4.3327Y-3.9444
X4.3386Y-2.7756
X4.3386Y-3.0315
X4.3386Y-3.2441
X4.3386Y-3.4843
X4.3425Y-2.4449
X4.3622Y-2.7402
X4.3819Y-2.1654
X4.3858Y-2.7756
X4.3858Y-3.0315
X4.3858Y-3.2441
X4.3858Y-3.4843
X4.3888Y-3.8031
X4.3976Y-2.4291
X4.4112Y-2.3191
X4.4252Y-4.2441
X4.4409Y-2.5925
X4.4665Y-3.8287
X4.4803Y-3.9488
X4.4803Y-4.0039
X4.498Y-3.8642
X4.514Y-3.688
X4.5162Y-3.552
X4.5276Y-4.2441
X4.5354Y-2.8661
X4.5354Y-2.9291
X4.5512Y-3.6614
X4.5512Y-3.7165
X4.5591Y-2.0689
X4.6038Y-2.8661
X4.6063Y-2.9291
X4.622Y-4.2441
X4.6417Y-2.8976
X4.6585Y-2.8061
X4.6614Y-2.2421
X4.6654Y-3.6299
X4.685Y-2.9685
X4.7047Y-3.6614
X4.7047Y-3.7126
X4.7244Y-4.2441
X4.7399Y-2.4614
X4.7657Y-2.5039
X4.7657Y-2.5689
X4.7677Y-2.7224
X4.8031Y-2.7756
X4.8031Y-2.8681
X4.8031Y-3.0531
X4.8031Y-3.1732
X4.8031Y-3.2953
X4.8031Y-3.4252
X4.8169Y-2.6378
X4.8189Y-3.6339
X4.8268Y-4.2441
X4.8425Y-2.5039
X4.8425Y-2.5689
X4.8504Y-3.7126
X4.872Y-2.6929
X4.8819Y-3.0531
X4.8819Y-3.1732
X4.8819Y-3.2953
X4.8819Y-3.4252
X4.8819Y-3.6339
X4.8839Y-2.9744
X4.8855Y-2.4646
X4.8858Y-2.6122
X4.8898Y-3.7441
X4.8976Y-2.7776
X4.8976Y-2.8681
X4.9114Y-2.9331
X4.9213Y-4.2441
X4.9252Y-2.5039
X4.9252Y-2.5689
X4.9409Y-3.6969
X4.9701Y-3.6264
X5.0Y-2.5059
X5.0118Y-2.9882
X5.0118Y-3.0354
X5.0134Y-2.8587
X5.0236Y-4.2441
X5.0315Y-3.7323
X5.0315Y-3.7953
X5.0433Y-2.5512
X5.0669Y-2.3071
X5.0669Y-2.3799
X5.0669Y-2.437
X5.0807Y-3.1929
X5.0807Y-3.9409
X5.0856Y-2.1821
X5.0963Y-3.8001
X5.1024Y-3.0394
X5.1063Y-2.8071
X5.1102Y-2.7559
X5.1132Y-2.5364
X5.1142Y-2.4803
X5.126Y-4.2441
X5.1299Y-2.3051
X5.1299Y-2.3799
X5.1496Y-2.1969
X5.1594Y-3.065
X5.1969Y-3.7835
X5.2087Y-3.065
X5.2116Y-2.4311
X5.2205Y-4.2441
X5.2283Y-3.2008
X5.2283Y-3.2559
X5.2283Y-3.9488
X5.2283Y-4.0039
X5.2308Y-2.8374
X5.2308Y-3.5846
X5.2622Y-3.6878
X5.2953Y-3.6614
X5.2953Y-3.7323
X5.2953Y-3.7795
X5.3228Y-4.2441
X5.3937Y-2.5394
X5.3937Y-2.6083
X5.3937Y-2.6772
X5.4094Y-2.3189
X5.4252Y-2.9331
X5.4252Y-4.2441
X5.4331Y-3.6614
X5.4331Y-3.7323
X5.4331Y-3.7795
X5.4646Y-2.8937
X5.4843Y-2.6083
X5.4898Y-2.3177
X5.5197Y-4.2441
X5.5591Y-2.3189
X5.5591Y-2.3898
X5.5709Y-3.6614
X5.5709Y-3.7323
X5.5709Y-3.7795
X5.622Y-4.2441
X5.6772Y-3.189
X5.6929Y-3.7323
X5.6929Y-3.7795
X5.7126Y-3.1496
X5.7224Y-3.6283
X5.7244Y-4.2441
X5.8189Y-4.2441
X5.8287Y-3.9528
X5.8514Y-3.7933
X5.874Y-3.3819
X5.8976Y-3.748
X5.9094Y-3.3425
X5.9134Y-4.2441
X5.9764Y-3.9488
X5.9764Y-4.0039
X5.9788Y-3.5839
X6.0106Y-3.6878
X6.0157Y-4.2441
X6.1102Y-4.2441
T3
X4.5669Y-4.0551
X5.315Y-3.3071
X5.315Y-4.0551
X5.874Y-2.0886
X5.874Y-2.2736
X6.063Y-4.0551
T4
X4.1339Y-2.1654
X4.1339Y-3.3465
X6.1024Y-2.1654
X6.1024Y-3.3465
T2
G00X4.948Y-2.0719
M15
G01X4.948Y-2.0404
M16
G05
G00X4.948Y-2.2423
M15
G01X4.948Y-2.199
M16
G05
G00X5.2882Y-2.0719
M15
G01X5.2882Y-2.0404
M16
G05
G00X5.2882Y-2.2423
M15
G01X5.2882Y-2.199
M16
G05
M30
