%TF.GenerationSoftware,KiCad,Pcbnew,9.0.6*%
%TF.CreationDate,2026-06-17T22:07:34-05:00*%
%TF.ProjectId,OTCboard,4f544362-6f61-4726-942e-6b696361645f,rev?*%
%TF.SameCoordinates,Original*%
%TF.FileFunction,Profile,NP*%
%FSLAX46Y46*%
G04 Gerber Fmt 4.6, Leading zero omitted, Abs format (unit mm)*
G04 Created by KiCad (PCBNEW 9.0.6) date 2026-06-17 22:07:34*
%MOMM*%
%LPD*%
G01*
G04 APERTURE LIST*
%TA.AperFunction,Profile*%
%ADD10C,0.100000*%
%TD*%
%TA.AperFunction,Profile*%
%ADD11C,0.050000*%
%TD*%
G04 APERTURE END LIST*
D10*
X155000000Y-50000000D02*
G75*
G02*
X160000000Y-55000061I0J-5000000D01*
G01*
X105000000Y-110000000D02*
G75*
G02*
X100000000Y-105000000I0J5000000D01*
G01*
X155000000Y-110000000D02*
X105000000Y-110000000D01*
X100000000Y-55000000D02*
G75*
G02*
X105000000Y-50000000I5000000J0D01*
G01*
X105000000Y-50000000D02*
X155000000Y-50000000D01*
X100000000Y-105000000D02*
X100000000Y-55000000D01*
X160000000Y-105000000D02*
G75*
G02*
X155000000Y-110000000I-5000000J0D01*
G01*
X160000000Y-55000000D02*
X160000000Y-105000000D01*
D11*
%TO.C,D8*%
X128600000Y-74824999D02*
X128600000Y-73025000D01*
X129100000Y-72525001D02*
X130900000Y-72525000D01*
X130900000Y-75325000D02*
X129100000Y-75325000D01*
X131400000Y-73025000D02*
X131400000Y-74825000D01*
X128600000Y-73025000D02*
G75*
G02*
X129100000Y-72525000I500001J-1D01*
G01*
X129100000Y-75325000D02*
G75*
G02*
X128600000Y-74825000I1J500001D01*
G01*
X130900000Y-72525000D02*
G75*
G02*
X131400000Y-73025000I0J-500000D01*
G01*
X131400000Y-74825000D02*
G75*
G02*
X130900000Y-75325000I-500000J0D01*
G01*
%TO.C,D7*%
X147600000Y-93824999D02*
X147600000Y-92025000D01*
X148100000Y-91525001D02*
X149900000Y-91525000D01*
X149900000Y-94325000D02*
X148100000Y-94325000D01*
X150400000Y-92025000D02*
X150400000Y-93825000D01*
X147600000Y-92025000D02*
G75*
G02*
X148100000Y-91525000I500001J-1D01*
G01*
X148100000Y-94325000D02*
G75*
G02*
X147600000Y-93825000I1J500001D01*
G01*
X149900000Y-91525000D02*
G75*
G02*
X150400000Y-92025000I0J-500000D01*
G01*
X150400000Y-93825000D02*
G75*
G02*
X149900000Y-94325000I-500000J0D01*
G01*
%TO.C,D6*%
X128600000Y-93824999D02*
X128600000Y-92025000D01*
X129100000Y-91525001D02*
X130900000Y-91525000D01*
X130900000Y-94325000D02*
X129100000Y-94325000D01*
X131400000Y-92025000D02*
X131400000Y-93825000D01*
X128600000Y-92025000D02*
G75*
G02*
X129100000Y-91525000I500001J-1D01*
G01*
X129100000Y-94325000D02*
G75*
G02*
X128600000Y-93825000I1J500001D01*
G01*
X130900000Y-91525000D02*
G75*
G02*
X131400000Y-92025000I0J-500000D01*
G01*
X131400000Y-93825000D02*
G75*
G02*
X130900000Y-94325000I-500000J0D01*
G01*
%TO.C,D5*%
X109600000Y-93824999D02*
X109600000Y-92025000D01*
X110100000Y-91525001D02*
X111900000Y-91525000D01*
X111900000Y-94325000D02*
X110100000Y-94325000D01*
X112400000Y-92025000D02*
X112400000Y-93825000D01*
X109600000Y-92025000D02*
G75*
G02*
X110100000Y-91525000I500001J-1D01*
G01*
X110100000Y-94325000D02*
G75*
G02*
X109600000Y-93825000I1J500001D01*
G01*
X111900000Y-91525000D02*
G75*
G02*
X112400000Y-92025000I0J-500000D01*
G01*
X112400000Y-93825000D02*
G75*
G02*
X111900000Y-94325000I-500000J0D01*
G01*
%TO.C,U7*%
X106810000Y-98000000D02*
G75*
G02*
X105030000Y-98000000I-890000J0D01*
G01*
X105030000Y-98000000D02*
G75*
G02*
X106810000Y-98000000I890000J0D01*
G01*
X116970000Y-98000000D02*
G75*
G02*
X115190000Y-98000000I-890000J0D01*
G01*
X115190000Y-98000000D02*
G75*
G02*
X116970000Y-98000000I890000J0D01*
G01*
%TO.C,U8*%
X125810000Y-98000000D02*
G75*
G02*
X124030000Y-98000000I-890000J0D01*
G01*
X124030000Y-98000000D02*
G75*
G02*
X125810000Y-98000000I890000J0D01*
G01*
X135970000Y-98000000D02*
G75*
G02*
X134190000Y-98000000I-890000J0D01*
G01*
X134190000Y-98000000D02*
G75*
G02*
X135970000Y-98000000I890000J0D01*
G01*
%TO.C,U9*%
X144810000Y-98000000D02*
G75*
G02*
X143030000Y-98000000I-890000J0D01*
G01*
X143030000Y-98000000D02*
G75*
G02*
X144810000Y-98000000I890000J0D01*
G01*
X154970000Y-98000000D02*
G75*
G02*
X153190000Y-98000000I-890000J0D01*
G01*
X153190000Y-98000000D02*
G75*
G02*
X154970000Y-98000000I890000J0D01*
G01*
%TO.C,U10*%
X125810000Y-79000000D02*
G75*
G02*
X124030000Y-79000000I-890000J0D01*
G01*
X124030000Y-79000000D02*
G75*
G02*
X125810000Y-79000000I890000J0D01*
G01*
X135970000Y-79000000D02*
G75*
G02*
X134190000Y-79000000I-890000J0D01*
G01*
X134190000Y-79000000D02*
G75*
G02*
X135970000Y-79000000I890000J0D01*
G01*
%TD*%
M02*
